<svg xmlns="http://www.w3.org/2000/svg" width="1254" height="836" viewBox="0 0 1254 836">
  <g>
    <path d="M 954.81 491.04 C948.52,492.23 930.89,492.12 925.50,490.86 C918.06,489.12 906.81,482.77 901.02,477.03 C893.07,469.17 885.89,454.37 886.85,447.84 C886.99,446.92 886.62,445.89 886.05,445.53 C884.69,444.69 884.63,418.35 885.98,417.51 C886.53,417.17 886.90,415.91 886.81,414.70 C886.57,411.52 889.04,402.00 890.10,402.00 C890.59,402.00 890.89,401.66 890.76,401.25 C890.37,400.03 893.17,394.00 894.12,394.00 C894.60,394.00 895.00,393.33 895.00,392.50 C895.00,391.67 895.45,391.00 896.00,391.00 C896.55,391.00 897.00,390.38 897.00,389.62 C897.00,388.86 898.91,386.58 901.25,384.57 C907.25,379.39 907.79,379.00 908.96,379.00 C909.53,379.00 910.00,378.63 910.00,378.17 C910.00,377.01 918.49,373.19 924.62,371.59 C929.82,370.23 948.70,370.12 956.42,371.41 C963.69,372.62 972.89,377.87 979.95,384.86 C992.52,397.28 997.00,409.40 997.00,431.00 C997.00,444.87 995.20,454.40 990.84,463.67 C985.24,475.56 968.21,488.50 954.81,491.04 ZM 569.00 449.00 L 569.00 490.00 L 557.47 490.00 C549.17,490.00 545.80,489.65 545.46,488.75 C545.20,488.06 545.10,461.40 545.24,429.50 L 545.50 371.50 L 604.50 371.56 L 611.00 374.70 C620.57,379.32 625.69,384.19 629.63,392.41 C632.78,398.98 633.00,400.11 633.00,409.68 C633.00,423.11 631.00,428.66 623.39,436.39 C613.54,446.40 605.38,448.96 583.25,448.99 ZM 709.22 487.54 C701.86,491.13 700.96,491.32 690.00,491.62 C677.38,491.96 673.48,491.29 666.01,487.50 C660.70,484.81 651.00,476.22 651.00,474.21 C651.00,473.54 650.60,473.00 650.12,473.00 C649.41,473.00 646.83,468.10 646.43,466.00 C646.38,465.73 645.71,464.15 644.95,462.50 C643.99,460.42 643.55,455.34 643.53,446.00 C643.50,434.44 643.77,432.10 645.37,429.75 C646.39,428.24 646.92,427.00 646.55,427.00 C645.73,427.00 650.18,418.64 651.25,418.17 C651.66,417.98 652.00,417.23 652.00,416.50 C652.00,414.88 660.77,407.00 662.57,407.00 C663.28,407.00 664.46,406.39 665.21,405.65 C666.58,404.28 672.45,402.06 677.00,401.20 C681.89,400.27 695.18,399.86 696.82,400.58 C697.75,400.98 699.03,401.23 699.67,401.13 C700.32,401.03 701.13,401.41 701.48,401.97 C701.83,402.54 703.16,403.00 704.43,403.00 C710.82,403.00 723.29,413.68 728.15,423.31 C734.18,435.24 734.38,455.95 728.59,468.58 C724.92,476.60 718.23,483.14 709.22,487.54 ZM 818.10 524.82 C811.32,527.68 794.27,528.30 791.25,525.80 C789.77,524.56 789.59,516.21 790.98,512.57 C791.90,510.13 792.33,510.00 799.30,510.00 C806.57,510.00 806.71,509.95 811.21,505.75 C813.97,503.17 816.25,499.93 817.01,497.50 C817.70,495.30 818.64,493.02 819.10,492.44 C819.58,491.83 819.08,489.64 817.91,487.29 C816.80,485.04 815.82,482.26 815.73,481.10 C815.65,479.95 815.22,479.00 814.79,479.00 C814.35,479.00 814.10,478.66 814.21,478.25 C814.33,477.84 813.90,476.56 813.26,475.40 C812.62,474.25 811.89,472.16 811.63,470.75 C811.37,469.34 810.47,467.11 809.61,465.81 C808.75,464.50 807.92,462.55 807.75,461.47 C807.58,460.38 807.09,458.94 806.66,458.25 C806.23,457.56 806.25,456.99 806.69,456.98 C807.14,456.98 807.02,456.64 806.43,456.23 C805.21,455.40 801.72,447.00 802.59,447.00 C802.91,447.00 802.23,445.50 801.10,443.66 C799.97,441.83 798.84,439.24 798.59,437.91 C798.35,436.59 798.06,435.27 797.96,435.00 C797.85,434.73 797.82,434.16 797.88,433.75 C797.95,433.34 797.55,433.00 797.00,433.00 C796.45,433.00 796.07,432.66 796.16,432.25 C796.25,431.84 795.76,430.15 795.07,428.50 C794.39,426.85 793.66,424.71 793.47,423.75 C793.27,422.79 792.41,421.00 791.56,419.78 C790.70,418.56 790.00,416.85 790.00,415.99 C790.00,415.13 789.10,412.66 788.00,410.50 C784.23,403.10 784.49,402.90 797.22,403.22 L 808.43 403.50 L 811.23 411.00 C812.77,415.12 815.78,423.45 817.93,429.50 C820.08,435.55 823.26,444.33 825.01,449.00 C826.75,453.67 828.73,459.05 829.41,460.93 C830.37,463.57 830.87,464.03 831.56,462.93 C832.06,462.15 832.53,461.16 832.61,460.75 C832.69,460.34 832.84,459.89 832.95,459.75 C833.06,459.61 833.34,458.48 833.57,457.22 C833.81,455.97 834.74,453.27 835.66,451.22 C837.62,446.84 837.45,447.29 838.47,443.50 C838.91,441.85 839.76,439.60 840.35,438.50 C840.94,437.40 841.46,436.27 841.51,436.00 C841.76,434.34 845.40,424.33 846.05,423.50 C846.48,422.95 846.88,422.05 846.94,421.50 C847.28,418.55 849.18,413.00 850.04,412.47 C850.59,412.14 850.77,411.44 850.46,410.93 C850.14,410.42 850.26,410.00 850.73,410.00 C851.19,410.00 851.65,409.06 851.73,407.91 C851.82,406.76 852.60,404.73 853.47,403.41 C854.97,401.12 855.56,401.00 865.52,401.00 C871.36,401.00 876.00,401.41 876.00,401.94 C876.00,402.45 873.06,410.66 869.46,420.19 C865.86,429.71 860.20,444.70 856.88,453.50 C847.24,479.04 838.17,500.98 834.36,508.00 C829.89,516.24 823.98,522.34 818.10,524.82 ZM 933.47 471.95 C934.37,473.41 946.75,472.10 952.46,469.95 C958.96,467.50 967.51,459.81 968.61,455.44 C968.94,454.10 969.64,453.00 970.17,453.00 C970.69,453.00 970.84,452.55 970.50,452.00 C970.16,451.45 970.26,451.00 970.72,451.00 C972.05,451.00 972.45,446.55 972.47,431.50 C972.50,420.08 972.10,414.35 971.08,411.25 C971.04,411.11 970.93,410.66 970.85,410.25 C970.77,409.84 969.65,407.82 968.35,405.77 C967.06,403.72 965.98,401.69 965.95,401.27 C965.93,400.85 963.79,398.81 961.20,396.75 C948.83,386.87 929.66,387.49 919.04,398.12 C915.43,401.72 910.29,412.18 909.46,417.58 C905.45,443.87 913.45,465.79 928.62,470.03 C931.06,470.72 933.24,471.58 933.47,471.95 ZM 1058.50 488.76 C1054.06,491.07 1052.15,491.40 1041.50,491.65 C1034.90,491.81 1028.38,491.57 1027.00,491.12 C1021.66,489.36 1014.36,485.03 1011.36,481.84 C1005.20,475.29 1000.75,461.85 1003.76,458.84 C1004.35,458.25 1008.92,457.53 1013.90,457.24 L 1022.95 456.73 L 1024.85 461.11 C1027.10,466.33 1028.92,468.06 1035.26,471.01 L 1040.01 473.23 L 1045.35 470.70 C1049.98,468.51 1050.97,467.50 1052.89,463.04 C1055.05,458.02 1055.11,456.83 1055.30,414.70 L 1055.50 371.50 L 1066.74 371.22 L 1077.98 370.93 L 1078.24 414.72 C1078.38,438.80 1078.18,460.40 1077.78,462.73 C1076.02,473.15 1068.19,483.73 1058.50,488.76 ZM 771.00 366.93 L 771.00 490.00 L 760.47 490.00 C752.97,490.00 749.80,489.64 749.46,488.75 C749.20,488.06 749.10,460.50 749.24,427.50 L 749.50 367.50 L 760.25 367.22 ZM 682.83 474.30 C693.54,475.49 701.08,471.92 706.40,463.16 L 709.95 457.31 L 709.59 446.91 C709.19,435.14 709.16,434.97 706.29,429.50 C700.94,419.29 689.64,415.26 679.40,419.91 C668.27,424.96 662.90,440.02 666.59,455.81 C668.24,462.85 668.84,463.94 673.77,468.69 C677.83,472.61 680.05,473.99 682.83,474.30 ZM 569.75 429.43 C570.16,429.86 576.12,430.02 583.00,429.79 C593.34,429.45 596.22,429.00 599.67,427.21 C605.42,424.22 611.00,415.76 611.00,410.03 C611.00,406.15 606.61,397.69 603.04,394.68 C598.61,390.96 594.09,390.01 580.75,390.01 L 569.00 390.00 L 569.00 409.33 C569.00,419.97 569.34,429.01 569.75,429.43 Z" fill="rgb(7,40,77)"/>
    <path d="M 484.00 518.00 C482.02,519.98 480.67,520.00 337.50,520.00 C201.21,520.00 192.90,519.90 191.25,518.25 C189.61,516.61 189.50,510.80 189.50,424.91 L 189.50 333.33 L 192.36 329.20 C194.15,326.62 197.13,324.12 200.31,322.53 L 205.39 320.00 L 376.04 320.00 L 376.93 322.25 C377.41,323.49 378.58,326.68 379.53,329.36 C380.47,332.03 382.62,335.78 384.30,337.69 C386.08,339.71 386.76,341.08 385.93,340.97 C385.14,340.85 345.94,340.82 298.82,340.88 C222.37,340.99 212.97,341.17 211.57,342.57 C210.17,343.97 210.00,352.41 210.00,420.37 C210.00,478.33 210.29,496.89 211.20,497.80 C212.11,498.71 230.91,499.00 289.70,499.00 C340.57,499.00 367.00,499.34 367.00,500.00 C367.00,500.55 367.67,501.00 368.50,501.00 C369.33,501.00 370.00,500.54 370.00,499.98 C370.00,499.30 385.63,498.98 416.67,499.02 C453.70,499.06 463.50,498.81 464.15,497.79 C464.60,497.08 464.98,474.96 464.98,448.64 C465.00,403.45 465.10,400.83 466.75,401.53 C472.88,404.13 476.10,404.92 480.75,404.96 L 486.00 405.00 L 486.00 460.50 C486.00,514.67 485.95,516.05 484.00,518.00 ZM 496.09 558.63 C493.22,559.65 461.20,559.90 337.50,559.87 C252.25,559.85 181.37,559.48 179.99,559.07 C172.80,556.88 167.16,552.02 164.55,545.78 C162.78,541.54 162.48,535.00 164.06,535.00 C164.64,535.00 164.87,534.60 164.57,534.11 C162.89,531.39 168.51,531.17 234.32,531.33 L 302.14 531.50 L 304.82 534.76 L 307.50 538.02 L 338.13 538.01 L 368.76 538.00 L 371.39 534.56 L 374.01 531.12 L 439.50 531.31 C475.53,531.41 505.12,531.13 505.27,530.68 C505.42,530.23 506.77,530.82 508.27,532.00 C510.54,533.78 511.00,534.93 511.00,538.76 C511.00,547.48 505.03,555.43 496.09,558.63 ZM 434.50 335.26 C431.96,336.56 427.94,337.46 423.50,337.71 C417.65,338.04 415.67,337.71 411.49,335.71 C405.94,333.05 400.52,327.49 398.29,322.14 C396.11,316.92 396.39,306.11 398.83,301.38 C401.43,296.35 407.52,290.51 412.22,288.55 C414.26,287.70 418.66,287.00 422.00,287.00 C429.38,287.00 434.26,288.91 439.37,293.80 C444.97,299.16 446.95,304.10 446.98,312.79 C447.01,323.52 442.89,330.93 434.50,335.26 ZM 498.35 307.64 C492.92,310.82 483.40,311.74 477.75,309.63 C460.67,303.26 456.27,280.97 469.71,268.87 C475.08,264.04 479.69,262.64 488.23,263.25 C496.60,263.85 501.90,267.05 506.31,274.18 C513.34,285.55 509.66,301.01 498.35,307.64 ZM 325.36 469.41 C323.90,469.98 313.09,470.27 312.92,469.75 C312.34,468.02 312.54,465.00 313.23,465.00 C313.72,465.00 313.88,464.61 313.59,464.14 C312.87,462.97 319.94,442.00 321.06,442.00 C321.54,442.00 321.68,441.33 321.36,440.50 C321.05,439.67 321.31,439.00 321.95,439.00 C322.59,439.00 322.88,438.61 322.58,438.13 C321.97,437.14 327.42,420.40 328.97,418.54 C329.53,417.87 329.69,417.02 329.32,416.66 C328.96,416.30 329.22,416.00 329.89,416.00 C330.57,416.00 330.88,415.61 330.58,415.13 C329.92,414.06 334.00,401.63 335.16,401.16 C335.63,400.98 335.79,400.47 335.52,400.04 C334.81,398.88 338.02,390.00 339.15,390.00 C339.68,390.00 339.87,389.61 339.58,389.12 C338.82,387.90 343.57,374.29 345.38,372.48 C347.48,370.38 358.84,370.41 359.65,372.53 C359.97,373.36 357.29,382.48 353.69,392.78 C350.09,403.07 343.71,421.40 339.52,433.50 C328.87,464.27 327.10,468.75 325.36,469.41 ZM 396.78 440.55 C386.80,449.07 377.80,456.00 376.72,456.00 C374.69,456.00 367.00,449.03 367.00,447.18 C367.00,446.16 379.24,434.82 381.04,434.17 C381.54,434.00 383.42,432.41 385.23,430.66 C387.03,428.90 390.02,426.21 391.88,424.69 C393.73,423.17 395.08,421.79 394.88,421.64 C390.95,418.76 374.00,403.55 374.00,402.90 C374.00,402.40 373.39,402.00 372.65,402.00 C371.92,402.00 370.50,401.10 369.50,400.00 C368.50,398.90 368.10,397.99 368.60,397.98 C369.09,397.98 368.83,397.55 368.02,397.03 C366.74,396.23 366.82,395.71 368.58,393.36 C372.22,388.49 375.63,386.50 378.22,387.74 C381.10,389.12 415.21,417.62 416.28,419.54 C416.72,420.33 416.59,421.90 415.98,423.04 C415.37,424.18 406.73,432.06 396.78,440.55 ZM 306.20 453.04 C304.02,455.22 301.60,457.00 300.82,457.00 C300.05,457.00 296.98,454.75 294.00,452.00 C291.02,449.25 288.34,447.00 288.04,447.00 C287.75,447.00 284.82,444.52 281.54,441.50 C278.27,438.47 275.39,436.00 275.15,436.00 C274.92,436.00 271.86,433.49 268.36,430.42 C262.50,425.27 260.44,422.00 263.06,422.00 C263.64,422.00 263.88,421.61 263.59,421.14 C263.11,420.36 284.09,400.00 285.38,400.00 C285.67,400.00 288.02,397.75 290.60,395.00 C293.17,392.25 295.90,390.00 296.67,390.00 C297.44,390.00 298.32,389.33 298.64,388.50 C298.95,387.67 300.11,387.00 301.21,387.00 C303.71,387.00 309.99,393.17 310.02,395.65 C310.03,396.74 304.57,402.69 296.81,410.07 L 283.59 422.64 L 287.55 426.19 C289.72,428.15 295.55,433.32 300.50,437.68 C305.45,442.04 309.64,446.39 309.83,447.34 C310.02,448.34 308.47,450.76 306.20,453.04 Z" fill="rgb(46,99,158)"/>
    <path d="M 0.00 418.00 L 0.00 0.00 L 627.00 0.00 L 1254.00 0.00 L 1254.00 418.00 L 1254.00 836.00 L 627.00 836.00 L 0.00 836.00 L 0.00 418.00 ZM 496.09 558.63 C505.03,555.43 511.00,547.48 511.00,538.76 C511.00,534.93 510.54,533.78 508.27,532.00 C506.77,530.82 505.42,530.23 505.27,530.68 C505.12,531.13 475.53,531.41 439.50,531.31 L 374.01 531.12 L 371.39 534.56 L 368.76 538.00 L 338.13 538.01 L 307.50 538.02 L 304.82 534.76 L 302.14 531.50 L 234.32 531.33 C168.51,531.17 162.89,531.39 164.57,534.11 C164.87,534.60 164.64,535.00 164.06,535.00 C162.48,535.00 162.78,541.54 164.55,545.78 C167.16,552.02 172.80,556.88 179.99,559.07 C181.37,559.48 252.25,559.85 337.50,559.87 C461.20,559.90 493.22,559.65 496.09,558.63 ZM 818.10 524.82 C823.98,522.34 829.89,516.24 834.36,508.00 C838.17,500.98 847.24,479.04 856.88,453.50 C860.20,444.70 865.86,429.71 869.46,420.19 C873.06,410.66 876.00,402.45 876.00,401.94 C876.00,401.41 871.36,401.00 865.52,401.00 C855.56,401.00 854.97,401.12 853.47,403.41 C852.60,404.73 851.82,406.76 851.73,407.91 C851.65,409.06 851.19,410.00 850.73,410.00 C850.26,410.00 850.14,410.42 850.46,410.93 C850.77,411.44 850.59,412.14 850.04,412.47 C849.18,413.00 847.28,418.55 846.94,421.50 C846.88,422.05 846.48,422.95 846.05,423.50 C845.40,424.33 841.76,434.34 841.51,436.00 C841.46,436.27 840.94,437.40 840.35,438.50 C839.76,439.60 838.91,441.85 838.47,443.50 C837.45,447.29 837.62,446.84 835.66,451.22 C834.74,453.27 833.81,455.97 833.57,457.22 C833.34,458.48 833.06,459.61 832.95,459.75 C832.84,459.89 832.69,460.34 832.61,460.75 C832.53,461.16 832.06,462.15 831.56,462.93 C830.87,464.03 830.37,463.57 829.41,460.93 C828.73,459.05 826.75,453.67 825.01,449.00 C823.26,444.33 820.08,435.55 817.93,429.50 C815.78,423.45 812.77,415.12 811.23,411.00 L 808.43 403.50 L 797.22 403.22 C784.49,402.90 784.23,403.10 788.00,410.50 C789.10,412.66 790.00,415.13 790.00,415.99 C790.00,416.85 790.70,418.56 791.56,419.78 C792.41,421.00 793.27,422.79 793.47,423.75 C793.66,424.71 794.39,426.85 795.07,428.50 C795.76,430.15 796.25,431.84 796.16,432.25 C796.07,432.66 796.45,433.00 797.00,433.00 C797.55,433.00 797.95,433.34 797.88,433.75 C797.82,434.16 797.85,434.73 797.96,435.00 C798.06,435.27 798.35,436.59 798.59,437.91 C798.84,439.24 799.97,441.83 801.10,443.66 C802.23,445.50 802.91,447.00 802.59,447.00 C801.72,447.00 805.21,455.40 806.43,456.23 C807.02,456.64 807.14,456.98 806.69,456.98 C806.25,456.99 806.23,457.56 806.66,458.25 C807.09,458.94 807.58,460.38 807.75,461.47 C807.92,462.55 808.75,464.50 809.61,465.81 C810.47,467.11 811.37,469.34 811.63,470.75 C811.89,472.16 812.62,474.25 813.26,475.40 C813.90,476.56 814.33,477.84 814.21,478.25 C814.10,478.66 814.35,479.00 814.79,479.00 C815.22,479.00 815.65,479.95 815.73,481.10 C815.82,482.26 816.80,485.04 817.91,487.29 C819.08,489.64 819.58,491.83 819.10,492.44 C818.64,493.02 817.70,495.30 817.01,497.50 C816.25,499.93 813.97,503.17 811.21,505.75 C806.71,509.95 806.57,510.00 799.30,510.00 C792.33,510.00 791.90,510.13 790.98,512.57 C789.59,516.21 789.77,524.56 791.25,525.80 C794.27,528.30 811.32,527.68 818.10,524.82 ZM 484.00 518.00 C485.95,516.05 486.00,514.67 486.00,460.50 L 486.00 405.00 L 480.75 404.96 C476.10,404.92 472.88,404.13 466.75,401.53 C465.10,400.83 465.00,403.45 464.98,448.64 C464.98,474.96 464.60,497.08 464.15,497.79 C463.50,498.81 453.70,499.06 416.67,499.02 C385.63,498.98 370.00,499.30 370.00,499.98 C370.00,500.54 369.33,501.00 368.50,501.00 C367.67,501.00 367.00,500.55 367.00,500.00 C367.00,499.34 340.57,499.00 289.70,499.00 C230.91,499.00 212.11,498.71 211.20,497.80 C210.29,496.89 210.00,478.33 210.00,420.37 C210.00,352.41 210.17,343.97 211.57,342.57 C212.97,341.17 222.37,340.99 298.82,340.88 C345.94,340.82 385.14,340.85 385.93,340.97 C386.76,341.08 386.08,339.71 384.30,337.69 C382.62,335.78 380.47,332.03 379.53,329.36 C378.58,326.68 377.41,323.49 376.93,322.25 L 376.04 320.00 L 290.72 320.00 L 205.39 320.00 L 200.31 322.53 C197.13,324.12 194.15,326.62 192.36,329.20 L 189.50 333.33 L 189.50 424.91 C189.50,510.80 189.61,516.61 191.25,518.25 C192.90,519.90 201.21,520.00 337.50,520.00 C480.67,520.00 482.02,519.98 484.00,518.00 ZM 709.22 487.54 C718.23,483.14 724.92,476.60 728.59,468.58 C734.38,455.95 734.18,435.24 728.15,423.31 C723.29,413.68 710.82,403.00 704.43,403.00 C703.16,403.00 701.83,402.54 701.48,401.97 C701.13,401.41 700.32,401.03 699.67,401.13 C699.03,401.23 697.75,400.98 696.82,400.58 C695.18,399.86 681.89,400.27 677.00,401.20 C672.45,402.06 666.58,404.28 665.21,405.65 C664.46,406.39 663.28,407.00 662.57,407.00 C660.77,407.00 652.00,414.88 652.00,416.50 C652.00,417.23 651.66,417.98 651.25,418.17 C650.18,418.64 645.73,427.00 646.55,427.00 C646.92,427.00 646.39,428.24 645.37,429.75 C643.77,432.10 643.50,434.44 643.53,446.00 C643.55,455.34 643.99,460.42 644.95,462.50 C645.71,464.15 646.38,465.73 646.43,466.00 C646.83,468.10 649.41,473.00 650.12,473.00 C650.60,473.00 651.00,473.54 651.00,474.21 C651.00,476.22 660.70,484.81 666.01,487.50 C673.48,491.29 677.38,491.96 690.00,491.62 C700.96,491.32 701.86,491.13 709.22,487.54 ZM 954.81 491.04 C968.21,488.50 985.24,475.56 990.84,463.67 C995.20,454.40 997.00,444.87 997.00,431.00 C997.00,409.40 992.52,397.28 979.95,384.86 C972.89,377.87 963.69,372.62 956.42,371.41 C948.70,370.12 929.82,370.23 924.62,371.59 C918.49,373.19 910.00,377.01 910.00,378.17 C910.00,378.63 909.53,379.00 908.96,379.00 C907.79,379.00 907.25,379.39 901.25,384.57 C898.91,386.58 897.00,388.86 897.00,389.62 C897.00,390.38 896.55,391.00 896.00,391.00 C895.45,391.00 895.00,391.67 895.00,392.50 C895.00,393.33 894.60,394.00 894.12,394.00 C893.17,394.00 890.37,400.03 890.76,401.25 C890.89,401.66 890.59,402.00 890.10,402.00 C889.04,402.00 886.57,411.52 886.81,414.70 C886.90,415.91 886.53,417.17 885.98,417.51 C884.63,418.35 884.69,444.69 886.05,445.53 C886.62,445.89 886.99,446.92 886.85,447.84 C885.89,454.37 893.07,469.17 901.02,477.03 C906.81,482.77 918.06,489.12 925.50,490.86 C930.89,492.12 948.52,492.23 954.81,491.04 ZM 1058.50 488.76 C1068.19,483.73 1076.02,473.15 1077.78,462.73 C1078.18,460.40 1078.38,438.80 1078.24,414.72 L 1077.98 370.93 L 1066.74 371.22 L 1055.50 371.50 L 1055.30 414.70 C1055.11,456.83 1055.05,458.02 1052.89,463.04 C1050.97,467.50 1049.98,468.51 1045.35,470.70 L 1040.01 473.23 L 1035.26 471.01 C1028.92,468.06 1027.10,466.33 1024.85,461.11 L 1022.95 456.73 L 1013.90 457.24 C1008.92,457.53 1004.35,458.25 1003.76,458.84 C1000.75,461.85 1005.20,475.29 1011.36,481.84 C1014.36,485.03 1021.66,489.36 1027.00,491.12 C1028.38,491.57 1034.90,491.81 1041.50,491.65 C1052.15,491.40 1054.06,491.07 1058.50,488.76 ZM 569.00 469.50 L 569.00 449.00 L 583.25 448.99 C605.38,448.96 613.54,446.40 623.39,436.39 C631.00,428.66 633.00,423.11 633.00,409.68 C633.00,400.11 632.78,398.98 629.63,392.41 C625.69,384.19 620.57,379.32 611.00,374.70 L 604.50 371.56 L 575.00 371.53 L 545.50 371.50 L 545.24 429.50 C545.10,461.40 545.20,488.06 545.46,488.75 C545.80,489.65 549.17,490.00 557.47,490.00 L 569.00 490.00 L 569.00 469.50 ZM 771.00 428.47 L 771.00 366.93 L 760.25 367.22 L 749.50 367.50 L 749.24 427.50 C749.10,460.50 749.20,488.06 749.46,488.75 C749.80,489.64 752.97,490.00 760.47,490.00 L 771.00 490.00 L 771.00 428.47 ZM 325.36 469.41 C327.10,468.75 328.87,464.27 339.52,433.50 C343.71,421.40 350.09,403.07 353.69,392.78 C357.29,382.48 359.97,373.36 359.65,372.53 C358.84,370.41 347.48,370.38 345.38,372.48 C343.57,374.29 338.82,387.90 339.58,389.12 C339.87,389.61 339.68,390.00 339.15,390.00 C338.02,390.00 334.81,398.88 335.52,400.04 C335.79,400.47 335.63,400.98 335.16,401.16 C334.00,401.63 329.92,414.06 330.58,415.13 C330.88,415.61 330.57,416.00 329.89,416.00 C329.22,416.00 328.96,416.30 329.32,416.66 C329.69,417.02 329.53,417.87 328.97,418.54 C327.42,420.40 321.97,437.14 322.58,438.13 C322.88,438.61 322.59,439.00 321.95,439.00 C321.31,439.00 321.05,439.67 321.36,440.50 C321.68,441.33 321.54,442.00 321.06,442.00 C319.94,442.00 312.87,462.97 313.59,464.14 C313.88,464.61 313.72,465.00 313.23,465.00 C312.54,465.00 312.34,468.02 312.92,469.75 C313.09,470.27 323.90,469.98 325.36,469.41 ZM 306.20 453.04 C308.47,450.76 310.02,448.34 309.83,447.34 C309.64,446.39 305.45,442.04 300.50,437.68 C295.55,433.32 289.72,428.15 287.55,426.19 L 283.59 422.64 L 296.81 410.07 C304.57,402.69 310.03,396.74 310.02,395.65 C309.99,393.17 303.71,387.00 301.21,387.00 C300.11,387.00 298.95,387.67 298.64,388.50 C298.32,389.33 297.44,390.00 296.67,390.00 C295.90,390.00 293.17,392.25 290.60,395.00 C288.02,397.75 285.67,400.00 285.38,400.00 C284.09,400.00 263.11,420.36 263.59,421.14 C263.88,421.61 263.64,422.00 263.06,422.00 C260.44,422.00 262.50,425.27 268.36,430.42 C271.86,433.49 274.92,436.00 275.15,436.00 C275.39,436.00 278.27,438.47 281.54,441.50 C284.82,444.52 287.75,447.00 288.04,447.00 C288.34,447.00 291.02,449.25 294.00,452.00 C296.98,454.75 300.05,457.00 300.82,457.00 C301.60,457.00 304.02,455.22 306.20,453.04 ZM 396.78 440.55 C406.73,432.06 415.37,424.18 415.98,423.04 C416.59,421.90 416.72,420.33 416.28,419.54 C415.21,417.62 381.10,389.12 378.22,387.74 C375.63,386.50 372.22,388.49 368.58,393.36 C366.82,395.71 366.74,396.23 368.02,397.03 C368.83,397.55 369.09,397.98 368.60,397.98 C368.10,397.99 368.50,398.90 369.50,400.00 C370.50,401.10 371.92,402.00 372.65,402.00 C373.39,402.00 374.00,402.40 374.00,402.90 C374.00,403.55 390.95,418.76 394.88,421.64 C395.08,421.79 393.73,423.17 391.88,424.69 C390.02,426.21 387.03,428.90 385.23,430.66 C383.42,432.41 381.54,434.00 381.04,434.17 C379.24,434.82 367.00,446.16 367.00,447.18 C367.00,449.03 374.69,456.00 376.72,456.00 C377.80,456.00 386.80,449.07 396.78,440.55 ZM 434.50 335.26 C442.89,330.93 447.01,323.52 446.98,312.79 C446.95,304.10 444.97,299.16 439.37,293.80 C434.26,288.91 429.38,287.00 422.00,287.00 C418.66,287.00 414.26,287.70 412.22,288.55 C407.52,290.51 401.43,296.35 398.83,301.38 C396.39,306.11 396.11,316.92 398.29,322.14 C400.52,327.49 405.94,333.05 411.49,335.71 C415.67,337.71 417.65,338.04 423.50,337.71 C427.94,337.46 431.96,336.56 434.50,335.26 ZM 498.35 307.64 C509.66,301.01 513.34,285.55 506.31,274.18 C501.90,267.05 496.60,263.85 488.23,263.25 C479.69,262.64 475.08,264.04 469.71,268.87 C456.27,280.97 460.67,303.26 477.75,309.63 C483.40,311.74 492.92,310.82 498.35,307.64 ZM 682.83 474.30 C680.05,473.99 677.83,472.61 673.77,468.69 C668.84,463.94 668.24,462.85 666.59,455.81 C662.90,440.02 668.27,424.96 679.40,419.91 C689.64,415.26 700.94,419.29 706.29,429.50 C709.16,434.97 709.19,435.14 709.59,446.91 L 709.95 457.31 L 706.40 463.16 C701.08,471.92 693.54,475.49 682.83,474.30 ZM 933.47 471.95 C933.24,471.58 931.06,470.72 928.62,470.03 C913.45,465.79 905.45,443.87 909.46,417.58 C910.29,412.18 915.43,401.72 919.04,398.12 C929.66,387.49 948.83,386.87 961.20,396.75 C963.79,398.81 965.93,400.85 965.95,401.27 C965.98,401.69 967.06,403.72 968.35,405.77 C969.65,407.82 970.77,409.84 970.85,410.25 C970.93,410.66 971.04,411.11 971.08,411.25 C972.10,414.35 972.50,420.08 972.47,431.50 C972.45,446.55 972.05,451.00 970.72,451.00 C970.26,451.00 970.16,451.45 970.50,452.00 C970.84,452.55 970.69,453.00 970.17,453.00 C969.64,453.00 968.94,454.10 968.61,455.44 C967.51,459.81 958.96,467.50 952.46,469.95 C946.75,472.10 934.37,473.41 933.47,471.95 ZM 569.75 429.43 C569.34,429.01 569.00,419.97 569.00,409.33 L 569.00 390.00 L 580.75 390.01 C594.09,390.01 598.61,390.96 603.04,394.68 C606.61,397.69 611.00,406.15 611.00,410.03 C611.00,415.76 605.42,424.22 599.67,427.21 C596.22,429.00 593.34,429.45 583.00,429.79 C576.12,430.02 570.16,429.86 569.75,429.43 Z" fill="rgb(254,254,254)"/>
  </g>
</svg>